{
    "asset" : {
        "generator" : "Khronos glTF Blender I/O v3.4.50",
        "version" : "2.0"
    },
    "scene" : 0,
    "scenes" : [
        {
            "name" : "Scene",
            "nodes" : [
                7
            ]
        }
    ],
    "nodes" : [
        {
            "name" : "Bone.002",
            "rotation" : [
                -0.21057528257369995,
                3.057471431588965e-08,
                -0.6490141749382019,
                0.7310531735420227
            ],
            "translation" : [
                3.410605131648481e-13,
                31.82564353942871,
                4.768363055518421e-07
            ]
        },
        {
            "name" : "Bone.003",
            "rotation" : [
                -0.21287980675697327,
                -2.0375718889908967e-08,
                0.6479613780975342,
                0.7313195466995239
            ],
            "scale" : [
                0.9999998807907104,
                0.9999999403953552,
                1
            ],
            "translation" : [
                3.410605131648481e-13,
                31.82564353942871,
                4.768363055518421e-07
            ]
        },
        {
            "children" : [
                0,
                1
            ],
            "name" : "Bone",
            "rotation" : [
                -0.10982245206832886,
                1.1848822367710454e-07,
                -1.309185648779021e-08,
                0.9939512014389038
            ],
            "translation" : [
                0,
                -16.915637969970703,
                2.168670654296875
            ]
        },
        {
            "name" : "Bone.004",
            "rotation" : [
                0.16345302760601044,
                -9.49528740079586e-08,
                -0.6462356448173523,
                0.7454278469085693
            ],
            "translation" : [
                0,
                37.613792419433594,
                -2.8610238587134518e-06
            ]
        },
        {
            "name" : "Bone.005",
            "rotation" : [
                0.20007307827472687,
                -9.877699547189422e-09,
                0.6253222823143005,
                0.7542829513549805
            ],
            "scale" : [
                0.9999998807907104,
                0.9999999403953552,
                1
            ],
            "translation" : [
                0,
                37.613792419433594,
                -2.8610238587134518e-06
            ]
        },
        {
            "children" : [
                3,
                4
            ],
            "name" : "Bone.001",
            "rotation" : [
                0.2126285284757614,
                1.1648337050473856e-07,
                2.5347297594180418e-08,
                0.9771331548690796
            ],
            "translation" : [
                0,
                -22.855388641357422,
                -141.83108520507812
            ]
        },
        {
            "mesh" : 0,
            "name" : "monster",
            "skin" : 0
        },
        {
            "children" : [
                6,
                2,
                5
            ],
            "name" : "monsterArmature",
            "translation" : [
                -3.5460830076772254e-06,
                8.905723571777344,
                66.36298370361328
            ]
        }
    ],
    "animations" : [
        {
            "channels" : [
                {
                    "sampler" : 0,
                    "target" : {
                        "node" : 2,
                        "path" : "translation"
                    }
                },
                {
                    "sampler" : 1,
                    "target" : {
                        "node" : 2,
                        "path" : "rotation"
                    }
                },
                {
                    "sampler" : 2,
                    "target" : {
                        "node" : 2,
                        "path" : "scale"
                    }
                },
                {
                    "sampler" : 3,
                    "target" : {
                        "node" : 0,
                        "path" : "translation"
                    }
                },
                {
                    "sampler" : 4,
                    "target" : {
                        "node" : 0,
                        "path" : "rotation"
                    }
                },
                {
                    "sampler" : 5,
                    "target" : {
                        "node" : 0,
                        "path" : "scale"
                    }
                },
                {
                    "sampler" : 6,
                    "target" : {
                        "node" : 1,
                        "path" : "translation"
                    }
                },
                {
                    "sampler" : 7,
                    "target" : {
                        "node" : 1,
                        "path" : "rotation"
                    }
                },
                {
                    "sampler" : 8,
                    "target" : {
                        "node" : 1,
                        "path" : "scale"
                    }
                },
                {
                    "sampler" : 9,
                    "target" : {
                        "node" : 5,
                        "path" : "translation"
                    }
                },
                {
                    "sampler" : 10,
                    "target" : {
                        "node" : 5,
                        "path" : "rotation"
                    }
                },
                {
                    "sampler" : 11,
                    "target" : {
                        "node" : 5,
                        "path" : "scale"
                    }
                },
                {
                    "sampler" : 12,
                    "target" : {
                        "node" : 3,
                        "path" : "translation"
                    }
                },
                {
                    "sampler" : 13,
                    "target" : {
                        "node" : 3,
                        "path" : "rotation"
                    }
                },
                {
                    "sampler" : 14,
                    "target" : {
                        "node" : 3,
                        "path" : "scale"
                    }
                },
                {
                    "sampler" : 15,
                    "target" : {
                        "node" : 4,
                        "path" : "translation"
                    }
                },
                {
                    "sampler" : 16,
                    "target" : {
                        "node" : 4,
                        "path" : "rotation"
                    }
                },
                {
                    "sampler" : 17,
                    "target" : {
                        "node" : 4,
                        "path" : "scale"
                    }
                }
            ],
            "name" : "eat",
            "samplers" : [
                {
                    "input" : 8,
                    "interpolation" : "LINEAR",
                    "output" : 9
                },
                {
                    "input" : 8,
                    "interpolation" : "LINEAR",
                    "output" : 10
                },
                {
                    "input" : 8,
                    "interpolation" : "LINEAR",
                    "output" : 11
                },
                {
                    "input" : 8,
                    "interpolation" : "LINEAR",
                    "output" : 12
                },
                {
                    "input" : 8,
                    "interpolation" : "LINEAR",
                    "output" : 13
                },
                {
                    "input" : 8,
                    "interpolation" : "LINEAR",
                    "output" : 14
                },
                {
                    "input" : 8,
                    "interpolation" : "LINEAR",
                    "output" : 15
                },
                {
                    "input" : 8,
                    "interpolation" : "LINEAR",
                    "output" : 16
                },
                {
                    "input" : 8,
                    "interpolation" : "LINEAR",
                    "output" : 17
                },
                {
                    "input" : 8,
                    "interpolation" : "LINEAR",
                    "output" : 18
                },
                {
                    "input" : 8,
                    "interpolation" : "LINEAR",
                    "output" : 19
                },
                {
                    "input" : 8,
                    "interpolation" : "LINEAR",
                    "output" : 20
                },
                {
                    "input" : 8,
                    "interpolation" : "LINEAR",
                    "output" : 21
                },
                {
                    "input" : 8,
                    "interpolation" : "LINEAR",
                    "output" : 22
                },
                {
                    "input" : 8,
                    "interpolation" : "LINEAR",
                    "output" : 23
                },
                {
                    "input" : 8,
                    "interpolation" : "LINEAR",
                    "output" : 24
                },
                {
                    "input" : 8,
                    "interpolation" : "LINEAR",
                    "output" : 25
                },
                {
                    "input" : 8,
                    "interpolation" : "LINEAR",
                    "output" : 26
                }
            ]
        }
    ],
    "meshes" : [
        {
            "name" : "Cylinder.003",
            "primitives" : [
                {
                    "attributes" : {
                        "COLOR_0" : 0,
                        "POSITION" : 1,
                        "TEXCOORD_0" : 2,
                        "NORMAL" : 3,
                        "JOINTS_0" : 4,
                        "WEIGHTS_0" : 5
                    },
                    "indices" : 6
                }
            ]
        }
    ],
    "skins" : [
        {
            "inverseBindMatrices" : 7,
            "joints" : [
                2,
                0,
                1,
                5,
                3,
                4
            ],
            "name" : "monsterArmature"
        }
    ],
    "accessors" : [
        {
            "bufferView" : 0,
            "componentType" : 5123,
            "count" : 662,
            "normalized" : true,
            "type" : "VEC4"
        },
        {
            "bufferView" : 1,
            "componentType" : 5126,
            "count" : 662,
            "max" : [
                144.22811889648438,
                39.408355712890625,
                87.38004302978516
            ],
            "min" : [
                -144.22811889648438,
                -329.39349365234375,
                -87.38004302978516
            ],
            "type" : "VEC3"
        },
        {
            "bufferView" : 2,
            "componentType" : 5126,
            "count" : 662,
            "type" : "VEC2"
        },
        {
            "bufferView" : 3,
            "componentType" : 5126,
            "count" : 662,
            "type" : "VEC3"
        },
        {
            "bufferView" : 4,
            "componentType" : 5121,
            "count" : 662,
            "type" : "VEC4"
        },
        {
            "bufferView" : 5,
            "componentType" : 5126,
            "count" : 662,
            "type" : "VEC4"
        },
        {
            "bufferView" : 6,
            "componentType" : 5123,
            "count" : 1692,
            "type" : "SCALAR"
        },
        {
            "bufferView" : 7,
            "componentType" : 5126,
            "count" : 6,
            "type" : "MAT4"
        },
        {
            "bufferView" : 8,
            "componentType" : 5126,
            "count" : 49,
            "max" : [
                2
            ],
            "min" : [
                0
            ],
            "type" : "SCALAR"
        },
        {
            "bufferView" : 9,
            "componentType" : 5126,
            "count" : 49,
            "type" : "VEC3"
        },
        {
            "bufferView" : 10,
            "componentType" : 5126,
            "count" : 49,
            "type" : "VEC4"
        },
        {
            "bufferView" : 11,
            "componentType" : 5126,
            "count" : 49,
            "type" : "VEC3"
        },
        {
            "bufferView" : 12,
            "componentType" : 5126,
            "count" : 49,
            "type" : "VEC3"
        },
        {
            "bufferView" : 13,
            "componentType" : 5126,
            "count" : 49,
            "type" : "VEC4"
        },
        {
            "bufferView" : 14,
            "componentType" : 5126,
            "count" : 49,
            "type" : "VEC3"
        },
        {
            "bufferView" : 15,
            "componentType" : 5126,
            "count" : 49,
            "type" : "VEC3"
        },
        {
            "bufferView" : 16,
            "componentType" : 5126,
            "count" : 49,
            "type" : "VEC4"
        },
        {
            "bufferView" : 17,
            "componentType" : 5126,
            "count" : 49,
            "type" : "VEC3"
        },
        {
            "bufferView" : 18,
            "componentType" : 5126,
            "count" : 49,
            "type" : "VEC3"
        },
        {
            "bufferView" : 19,
            "componentType" : 5126,
            "count" : 49,
            "type" : "VEC4"
        },
        {
            "bufferView" : 20,
            "componentType" : 5126,
            "count" : 49,
            "type" : "VEC3"
        },
        {
            "bufferView" : 21,
            "componentType" : 5126,
            "count" : 49,
            "type" : "VEC3"
        },
        {
            "bufferView" : 22,
            "componentType" : 5126,
            "count" : 49,
            "type" : "VEC4"
        },
        {
            "bufferView" : 23,
            "componentType" : 5126,
            "count" : 49,
            "type" : "VEC3"
        },
        {
            "bufferView" : 24,
            "componentType" : 5126,
            "count" : 49,
            "type" : "VEC3"
        },
        {
            "bufferView" : 25,
            "componentType" : 5126,
            "count" : 49,
            "type" : "VEC4"
        },
        {
            "bufferView" : 26,
            "componentType" : 5126,
            "count" : 49,
            "type" : "VEC3"
        }
    ],
    "bufferViews" : [
        {
            "buffer" : 0,
            "byteLength" : 5296,
            "byteOffset" : 0,
            "target" : 34962
        },
        {
            "buffer" : 0,
            "byteLength" : 7944,
            "byteOffset" : 5296,
            "target" : 34962
        },
        {
            "buffer" : 0,
            "byteLength" : 5296,
            "byteOffset" : 13240,
            "target" : 34962
        },
        {
            "buffer" : 0,
            "byteLength" : 7944,
            "byteOffset" : 18536,
            "target" : 34962
        },
        {
            "buffer" : 0,
            "byteLength" : 2648,
            "byteOffset" : 26480,
            "target" : 34962
        },
        {
            "buffer" : 0,
            "byteLength" : 10592,
            "byteOffset" : 29128,
            "target" : 34962
        },
        {
            "buffer" : 0,
            "byteLength" : 3384,
            "byteOffset" : 39720,
            "target" : 34963
        },
        {
            "buffer" : 0,
            "byteLength" : 384,
            "byteOffset" : 43104
        },
        {
            "buffer" : 0,
            "byteLength" : 196,
            "byteOffset" : 43488
        },
        {
            "buffer" : 0,
            "byteLength" : 588,
            "byteOffset" : 43684
        },
        {
            "buffer" : 0,
            "byteLength" : 784,
            "byteOffset" : 44272
        },
        {
            "buffer" : 0,
            "byteLength" : 588,
            "byteOffset" : 45056
        },
        {
            "buffer" : 0,
            "byteLength" : 588,
            "byteOffset" : 45644
        },
        {
            "buffer" : 0,
            "byteLength" : 784,
            "byteOffset" : 46232
        },
        {
            "buffer" : 0,
            "byteLength" : 588,
            "byteOffset" : 47016
        },
        {
            "buffer" : 0,
            "byteLength" : 588,
            "byteOffset" : 47604
        },
        {
            "buffer" : 0,
            "byteLength" : 784,
            "byteOffset" : 48192
        },
        {
            "buffer" : 0,
            "byteLength" : 588,
            "byteOffset" : 48976
        },
        {
            "buffer" : 0,
            "byteLength" : 588,
            "byteOffset" : 49564
        },
        {
            "buffer" : 0,
            "byteLength" : 784,
            "byteOffset" : 50152
        },
        {
            "buffer" : 0,
            "byteLength" : 588,
            "byteOffset" : 50936
        },
        {
            "buffer" : 0,
            "byteLength" : 588,
            "byteOffset" : 51524
        },
        {
            "buffer" : 0,
            "byteLength" : 784,
            "byteOffset" : 52112
        },
        {
            "buffer" : 0,
            "byteLength" : 588,
            "byteOffset" : 52896
        },
        {
            "buffer" : 0,
            "byteLength" : 588,
            "byteOffset" : 53484
        },
        {
            "buffer" : 0,
            "byteLength" : 784,
            "byteOffset" : 54072
        },
        {
            "buffer" : 0,
            "byteLength" : 588,
            "byteOffset" : 54856
        }
    ],
    "buffers" : [
        {
            "byteLength" : 55444,
            "uri" : "data:application/octet-stream;base64,"
        }
    ]
}
