{
    "asset" : {
        "generator" : "Khronos glTF Blender I/O v3.3.27",
        "version" : "2.0"
    },
    "scene" : 0,
    "scenes" : [
        {
            "name" : "Scene",
            "nodes" : [
                0
            ]
        }
    ],
    "nodes" : [
        {
            "mesh" : 0,
            "name" : "erupteemiddle"
        }
    ],
    "meshes" : [
        {
            "name" : "Icosphere.001",
            "primitives" : [
                {
                    "attributes" : {
                        "POSITION" : 0,
                        "NORMAL" : 1
                    },
                    "indices" : 2
                }
            ]
        }
    ],
    "accessors" : [
        {
            "bufferView" : 0,
            "componentType" : 5126,
            "count" : 35200,
            "max" : [
                14.796534538269043,
                23.123533248901367,
                26.86545753479004
            ],
            "min" : [
                -16.25185203552246,
                -22.962343215942383,
                -22.660703659057617
            ],
            "type" : "VEC3"
        },
        {
            "bufferView" : 1,
            "componentType" : 5126,
            "count" : 35200,
            "type" : "VEC3"
        },
        {
            "bufferView" : 2,
            "componentType" : 5123,
            "count" : 211248,
            "type" : "SCALAR"
        }
    ],
    "bufferViews" : [
        {
            "buffer" : 0,
            "byteLength" : 422400,
            "byteOffset" : 0,
            "target" : 34962
        },
        {
            "buffer" : 0,
            "byteLength" : 422400,
            "byteOffset" : 422400,
            "target" : 34962
        },
        {
            "buffer" : 0,
            "byteLength" : 422496,
            "byteOffset" : 844800,
            "target" : 34963
        }
    ],
    "buffers" : [
        {
            "byteLength" : 1267296,
            "uri" : "data:application/octet-stream;base64,"
        }
    ]
}
